<?xml version="1.0" encoding="UTF-8"?>
<svg id="_图层_2" data-name="图层_2" xmlns="http://www.w3.org/2000/svg" viewBox="0 0 797.61 410.33">
  <defs>
    <style>
      .cls-1 {
        fill: #256fff;
      }
    </style>
  </defs>
  <g id="_图层_1-2" data-name="图层_1">
    <g>
      <g>
        <path d="M0,410.33L146.27,38.33h57.19l146.27,372h-55.67l-38.46-101.22H92.62l-37.96,101.22H0ZM110.84,260.52h126.53l-63.26-166.01h-1.01l-62.25,166.01Z"/>
        <path d="M450.95,38.33v372h-55.17V38.33h55.17Z"/>
      </g>
      <g>
        <path class="cls-1" d="M643.05,22.02l-3.49,16.28c-9.75,45.43-45.25,80.92-90.68,90.68l-16.28,3.49,16.78,3.6c45.13,9.67,80.37,44.93,90.06,90.06l3.6,16.75,3.63-16.93c9.66-45.02,44.87-80.22,89.89-89.89l16.93-3.63-16.49-3.54c-45.31-9.72-80.69-45.1-90.41-90.41l-3.54-16.46Z"/>
        <path class="cls-1" d="M797.02,96.92c-5.28-11.76-44.84-6.8-97,10.3l.39.93c38.4-11.26,66.81-13.49,70.84-3.95,5.85,13.83-41.63,47.13-106.05,74.37-.03.01-.06.02-.08.04-.54.24-1.08.48-1.63.71-.26.11-.52.22-.78.33-3.71,1.58-7.39,3.09-11.03,4.53,0,0,0,0,0,0-4.19,1.65-8.31,3.17-12.38,4.61-53.13,19.51-96.27,26-101.32,14.07-3.6-8.51,13.09-24.41,41.42-41.72l-.73-1.06c-44.74,24.87-72.58,48.46-67.52,59.73,5.73,12.77,51.91,5.83,110.77-14.98h0c.06-.02.12-.04.18-.07,3.29-1.16,6.62-2.38,9.98-3.62.43-.16.86-.32,1.3-.48.47-.18.94-.35,1.42-.53,0,0,0-.01,0-.01,3.89-1.46,7.82-2.98,11.8-4.56,0,0,0,.01,0,.02,1.8-.71,3.62-1.46,5.43-2.2,1.36-.55,2.71-1.09,4.08-1.65,3.61-1.49,7.24-3.01,10.89-4.58,1.52-.65,3.03-1.31,4.53-1.96.41-.18.82-.36,1.22-.54,1.17-.52,2.34-1.03,3.51-1.55.36-.16.73-.32,1.09-.49,1.48-.66,2.96-1.33,4.43-2,.18-.08.37-.17.55-.25,1.29-.59,2.58-1.18,3.86-1.77.38-.17.75-.35,1.13-.53,1.23-.57,2.44-1.14,3.66-1.71.23-.11.47-.22.7-.33,1.45-.68,2.89-1.37,4.32-2.06.24-.12.47-.23.71-.35,1.2-.58,2.39-1.16,3.58-1.74.32-.16.65-.32.97-.47,1.36-.67,2.72-1.34,4.06-2.01.02,0,.04-.02.06-.03,1.42-.71,2.83-1.42,4.23-2.13.22-.11.44-.23.67-.34,1.19-.61,2.37-1.21,3.54-1.82.23-.12.46-.24.68-.35,2.73-1.42,5.41-2.83,8.04-4.25.19-.1.38-.2.57-.3,1.2-.65,2.38-1.29,3.56-1.94.12-.07.25-.13.37-.2,2.61-1.43,5.16-2.86,7.66-4.29.16-.09.32-.18.47-.27,1.21-.69,2.4-1.38,3.58-2.07.01,0,.02-.01.03-.02,39.27-22.89,62.93-43.99,58.23-54.47Z"/>
        <path class="cls-1" d="M714.93,0l-1.22,5.68c-3.39,15.85-15.78,28.23-31.63,31.63l-5.68,1.22,5.84,1.25c15.74,3.38,28.04,15.67,31.43,31.41l1.26,5.84,1.27-5.9c3.37-15.71,15.64-27.98,31.35-31.35l5.9-1.27-5.74-1.23c-15.8-3.4-28.14-15.74-31.55-31.54l-1.24-5.74Z"/>
      </g>
    </g>
  </g>
</svg>